

Complete name                            : D 2005 DvD Rip
Format                                   : AVI
Format/Info                              : Audio Video Interleave
File size                                : 702 MiB
Duration                                 : 1h 41mn
Overall bit rate mode                    : Variable
Overall bit rate                         : 965 Kbps
Writing application                      : VirtualDubMod 1.5.4.1 (build 2178/release)
Writing library                          : VirtualDubMod build 2178/release

Video
ID                                       : 0
Format                                   : MPEG-4 Visual
Format profile                           : Simple@L3
Format settings, BVOP                    : 1
Format settings, QPel                    : No
Format settings, GMC                     : No warppoints
Format settings, Matrix                  : Custom
Codec ID                                 : XVID
Codec ID/Hint                            : XviD
Duration                                 : 1h 41mn
Bit rate                                 : 828 Kbps
Width                                    : 608 pixels
Height                                   : 272 pixels
Display aspect ratio                     : 2.25:1
Frame rate                               : 23.976 fps
Color space                              : YUV
Chroma subsampling                       : 4:2:0
Bit depth                                : 8 bits
Scan type                                : Progressive
Compression mode                         : Lossy
Bits/(Pixel*Frame)                       : 0.209
Stream size                              : 602 MiB (86%)
Writing library                          : XviD 1.1.0 Beta2 (UTC 2005-04-04)

Audio
ID                                       : 1
Format                                   : MPEG Audio
Format version                           : Version 1
Format profile                           : Layer 3
Mode                                     : Joint stereo
Codec ID                                 : 55
Codec ID/Hint                            : MP3
Duration                                 : 1h 41mn
Bit rate mode                            : Variable
Bit rate                                 : 128 Kbps
Channel(s)                               : 2 channels
Sampling rate                            : 48.0 KHz
Compression mode                         : Lossy
Stream size                              : 90.9 MiB (13%)
Alignment                                : Aligned on interleaves
Interleave, duration                     : 24 ms (0.58 video frame)
Interleave, preload duration             : 528 ms
Writing library                          : LAME3.96r
Encoding settings                        : -m j -V 4 -q 2 -lowpass 17.5 --abr 128
Language                                 : Hindi


STORYLINE:-

Deshu, a mechanic from Dubai, comes home to Mumbai, and gets embroiled in a crime by accident. The film shows his meteoric rise from common, law-abiding man to underworld kingpin.

SCREENS:-

[IMG]http://i1128.photobucket.com/albums/m482/vikkymaxx/D%20Company/d.jpg[/IMG]
[IMG]http://i1128.photobucket.com/albums/m482/vikkymaxx/D%20Company/vlcsnap-2012-11-11-17h19m41s9.png[/IMG]
[IMG]http://i1128.photobucket.com/albums/m482/vikkymaxx/D%20Company/vlcsnap-2012-11-11-17h21m24s17.png[/IMG]
[IMG]http://i1128.photobucket.com/albums/m482/vikkymaxx/D%20Company/vlcsnap-2012-11-11-17h21m55s76.png[/IMG]
[IMG]http://i1128.photobucket.com/albums/m482/vikkymaxx/D%20Company/vlcsnap-2012-11-11-17h22m33s193.png[/IMG]
[IMG]http://i1128.photobucket.com/albums/m482/vikkymaxx/D%20Company/vlcsnap-2012-11-11-17h23m07s22.png[/IMG]
[IMG]http://i1128.photobucket.com/albums/m482/vikkymaxx/D%20Company/vlcsnap-2012-11-11-17h23m26s216.png[/IMG]
[IMG]http://i1128.photobucket.com/albums/m482/vikkymaxx/D%20Company/vlcsnap-2012-11-11-17h24m28s67.png[/IMG]
[IMG]http://i1128.photobucket.com/albums/m482/vikkymaxx/D%20Company/vlcsnap-2012-11-11-17h24m44s222.png[/IMG]
[IMG]http://i1128.photobucket.com/albums/m482/vikkymaxx/D%20Company/vlcsnap-2012-11-11-17h25m08s206.png[/IMG]

SUBTITLES- ENGLISH

SAMPLE INCLUDED

SPOKEN LANGUAGE IS HINDI AS THERE IS NO OPTION FOR HINDI


********* ALL CREDITS TO THE ORIGINAL UPLOADER *********

PLEASE SEED AFTER DOWNLOAD.

